<svg width="8" height="13" viewBox="0 0 8 13" fill="none" xmlns="http://www.w3.org/2000/svg">
<path d="M7.43753 1.83761V0.659966C7.43753 0.557893 7.31722 0.501525 7.23597 0.563987L0.19221 5.92813C0.132364 5.9735 0.083938 6.03161 0.050627 6.09801C0.0173161 6.16442 0 6.23736 0 6.31128C0 6.3852 0.0173161 6.45814 0.050627 6.52454C0.083938 6.59095 0.132364 6.64905 0.19221 6.69443L7.23597 12.0586C7.31878 12.121 7.43753 12.0647 7.43753 11.9626V10.7849C7.43753 10.7103 7.40159 10.6387 7.34222 10.593L1.71721 6.31204L7.34222 2.02957C7.40159 1.98386 7.43753 1.91226 7.43753 1.83761Z" fill="white"/>
</svg>
