<svg width="8" height="13" viewBox="0 0 8 13" fill="none" xmlns="http://www.w3.org/2000/svg">
<path d="M0.562469 1.83761V0.659966C0.562469 0.557893 0.682782 0.501525 0.764032 0.563987L7.80779 5.92813C7.86764 5.9735 7.91606 6.03161 7.94937 6.09801C7.98268 6.16442 8 6.23736 8 6.31128C8 6.3852 7.98268 6.45814 7.94937 6.52454C7.91606 6.59095 7.86764 6.64905 7.80779 6.69443L0.764032 12.0586C0.68122 12.121 0.562469 12.0647 0.562469 11.9626V10.7849C0.562469 10.7103 0.598406 10.6387 0.657781 10.593L6.28279 6.31204L0.657781 2.02957C0.598406 1.98386 0.562469 1.91226 0.562469 1.83761Z" fill="white"/>
</svg>
