<svg width="13" height="13" viewBox="0 0 13 13" fill="none" xmlns="http://www.w3.org/2000/svg">
<path d="M12.3397 4.45001L8.61745 3.87344L6.95348 0.278131C6.90803 0.179693 6.83327 0.100006 6.7409 0.0515683C6.50927 -0.0703067 6.22779 0.0312558 6.11197 0.278131L4.448 3.87344L0.725707 4.45001C0.623083 4.46563 0.529256 4.51719 0.45742 4.59532C0.370574 4.69045 0.322717 4.81844 0.324367 4.95117C0.326016 5.08389 0.377036 5.21048 0.466216 5.30313L3.15935 8.10157L2.52308 12.0531C2.50816 12.1451 2.51771 12.2396 2.55063 12.326C2.58356 12.4125 2.63855 12.4873 2.70937 12.5422C2.78019 12.597 2.86401 12.6296 2.95131 12.6362C3.03862 12.6428 3.12593 12.6233 3.20333 12.5797L6.53273 10.7141L9.86212 12.5797C9.95302 12.6313 10.0586 12.6484 10.1597 12.6297C10.4148 12.5828 10.5864 12.325 10.5424 12.0531L9.9061 8.10157L12.5992 5.30313C12.6725 5.22657 12.7209 5.12657 12.7356 5.01719C12.7752 4.74376 12.5963 4.49063 12.3397 4.45001Z" fill="#34C759"/>
</svg>
