<svg width="25" height="19" viewBox="0 0 25 19" fill="none" xmlns="http://www.w3.org/2000/svg">
<path d="M24.1055 2.88015C24.0333 2.79099 23.9423 2.71896 23.839 2.66924C23.7358 2.61952 23.6228 2.59334 23.5082 2.59258H7.35917L7.86334 4.14701H22.4921L20.4211 13.4736H8.78637L5.24165 2.22729C5.20331 2.10795 5.13672 1.99968 5.04758 1.91172C4.95844 1.82375 4.84938 1.75869 4.72972 1.7221L1.54955 0.742807C1.45177 0.712698 1.34902 0.702183 1.24718 0.711862C1.14534 0.721541 1.0464 0.751224 0.956006 0.799218C0.773451 0.896146 0.636799 1.06177 0.576113 1.25966C0.515427 1.45754 0.535678 1.67148 0.63241 1.8544C0.729143 2.03732 0.894434 2.17425 1.09192 2.23506L3.8765 3.09L7.43674 14.3596L6.16467 15.4011L6.06384 15.5021C5.74918 15.8655 5.57083 16.3274 5.55951 16.8083C5.54818 17.2892 5.70459 17.7591 6.00178 18.1369C6.2132 18.3945 6.48184 18.599 6.78623 18.7339C7.09062 18.8689 7.4223 18.9306 7.75475 18.9141H20.7004C20.9061 18.9141 21.1034 18.8322 21.2488 18.6865C21.3943 18.5407 21.476 18.343 21.476 18.1369C21.476 17.9307 21.3943 17.7331 21.2488 17.5873C21.1034 17.4415 20.9061 17.3597 20.7004 17.3597H7.63065C7.54133 17.3566 7.45431 17.3305 7.37799 17.2839C7.30167 17.2373 7.23863 17.1718 7.19496 17.0937C7.1513 17.0155 7.12848 16.9274 7.12871 16.8379C7.12894 16.7483 7.15222 16.6604 7.19629 16.5824L9.0656 15.028H21.0416C21.2209 15.0324 21.3962 14.9744 21.5376 14.8639C21.6791 14.7533 21.7779 14.5971 21.8173 14.4218L24.2761 3.54078C24.2997 3.42491 24.2966 3.30518 24.267 3.1907C24.2374 3.07621 24.1822 2.97 24.1055 2.88015Z" fill="white"/>
</svg>
