<svg width="13" height="13" viewBox="0 0 13 13" fill="none" xmlns="http://www.w3.org/2000/svg">
<path d="M12.4479 4.45001L8.72556 3.87344L7.06159 0.278131C7.01614 0.179693 6.94137 0.100006 6.84901 0.0515683C6.61738 -0.0703067 6.3359 0.0312558 6.22008 0.278131L4.55611 3.87344L0.833815 4.45001C0.731192 4.46563 0.637365 4.51719 0.565528 4.59532C0.478682 4.69045 0.430826 4.81844 0.432475 4.95117C0.434125 5.08389 0.485145 5.21048 0.574325 5.30313L3.26746 8.10157L2.63119 12.0531C2.61627 12.1451 2.62581 12.2396 2.65874 12.326C2.69167 12.4125 2.74666 12.4873 2.81748 12.5422C2.8883 12.597 2.97212 12.6296 3.05942 12.6362C3.14673 12.6428 3.23404 12.6233 3.31144 12.5797L6.64083 10.7141L9.97023 12.5797C10.0611 12.6313 10.1667 12.6484 10.2678 12.6297C10.5229 12.5828 10.6945 12.325 10.6505 12.0531L10.0142 8.10157L12.7073 5.30313C12.7806 5.22657 12.829 5.12657 12.8437 5.01719C12.8833 4.74376 12.7044 4.49063 12.4479 4.45001ZM8.88096 7.70782L9.4102 10.9938L6.64083 9.44376L3.87147 10.9953L4.40071 7.70938L2.16059 5.38126L5.25688 4.90157L6.64083 1.91251L8.02478 4.90157L11.1211 5.38126L8.88096 7.70782Z" fill="#34C759"/>
</svg>
