<svg width="15" height="17" viewBox="0 0 15 17" fill="none" xmlns="http://www.w3.org/2000/svg">
<path d="M5 6.05334H7V8.05334H5V6.05334ZM8 6.05334H10V8.05334H8V6.05334ZM11 6.05334H13V8.05334H11V6.05334ZM2 12.0533H4V14.0533H2V12.0533ZM5 12.0533H7V14.0533H5V12.0533ZM8 12.0533H10V14.0533H8V12.0533ZM5 9.05334H7V11.0533H5V9.05334ZM8 9.05334H10V11.0533H8V9.05334ZM11 9.05334H13V11.0533H11V9.05334ZM2 9.05334H4V11.0533H2V9.05334ZM13 0.0533447V1.05334H11V0.0533447H4V1.05334H2V0.0533447H0V16.0533H15V0.0533447H13ZM14 15.0533H1V4.05334H14V15.0533Z" fill="#34C759"/>
</svg>
