<svg width="20" height="20" viewBox="0 0 20 20" fill="none" xmlns="http://www.w3.org/2000/svg">
<path d="M18.6011 15.8428C18.1328 14.7531 17.4533 13.7632 16.6004 12.9284C15.7501 12.0912 14.7427 11.4236 13.6341 10.9627C13.6242 10.9578 13.6142 10.9554 13.6043 10.9505C15.1508 9.853 16.1561 8.06531 16.1561 6.04837C16.1561 2.70714 13.4008 0 10.0001 0C6.5994 0 3.84409 2.70714 3.84409 6.04837C3.84409 8.06531 4.84941 9.853 6.39585 10.9529C6.38592 10.9578 6.37599 10.9602 6.36606 10.9651C5.25401 11.4261 4.25615 12.087 3.39977 12.9308C2.54764 13.7663 1.86823 14.756 1.39907 15.8453C0.938175 16.9117 0.689602 18.055 0.66681 19.2133C0.666148 19.2394 0.670794 19.2653 0.680477 19.2895C0.69016 19.3137 0.704682 19.3358 0.723188 19.3545C0.741694 19.3731 0.76381 19.3879 0.788232 19.398C0.812655 19.4081 0.838889 19.4133 0.86539 19.4133H2.35474C2.46396 19.4133 2.55084 19.328 2.55332 19.2231C2.60297 17.3403 3.37247 15.577 4.73274 14.2405C6.14018 12.8577 8.00932 12.0967 10.0001 12.0967C11.9908 12.0967 13.86 12.8577 15.2674 14.2405C16.6277 15.577 17.3972 17.3403 17.4468 19.2231C17.4493 19.3304 17.5362 19.4133 17.6454 19.4133H19.1348C19.1613 19.4133 19.1875 19.4081 19.2119 19.398C19.2364 19.3879 19.2585 19.3731 19.277 19.3545C19.2955 19.3358 19.31 19.3137 19.3197 19.2895C19.3294 19.2653 19.334 19.2394 19.3334 19.2133C19.3085 18.0476 19.0628 16.9135 18.6011 15.8428ZM10.0001 10.2432C8.86073 10.2432 7.78839 9.80666 6.98166 9.01403C6.17493 8.2214 5.73061 7.16781 5.73061 6.04837C5.73061 4.92894 6.17493 3.87535 6.98166 3.08272C7.78839 2.29009 8.86073 1.85353 10.0001 1.85353C11.1394 1.85353 12.2118 2.29009 13.0185 3.08272C13.8252 3.87535 14.2696 4.92894 14.2696 6.04837C14.2696 7.16781 13.8252 8.2214 13.0185 9.01403C12.2118 9.80666 11.1394 10.2432 10.0001 10.2432Z" fill="white"/>
</svg>
